<svg width="222" height="28" viewBox="0 0 222 28" fill="none" xmlns="http://www.w3.org/2000/svg">
<path d="M24.824 0.639999V27.584H20.696V0.639999H24.824ZM19.064 16.064V19.616H11.224V27.648H7.096V19.616H0.28V16.064H19.064ZM7.416 1.888H11.352C12.28 5.632 15 9.6 17.4 13.28H12.984C11.704 11.584 10.136 9.024 9.304 7.36C8.344 9.6 7.192 11.232 5.752 13.28H0.856C3.256 10.624 4.856 7.776 5.912 5.6C6.52 4.32 7.032 3.072 7.416 1.888ZM34.2625 0.639999H42.7425C45.2065 0.639999 47.7025 1.888 47.7025 4.704V6.56C47.7025 9.376 45.3665 10.72 42.5505 10.72H33.8785C31.2865 10.72 28.9825 9.344 28.9825 6.368V4.768C28.9825 2.432 30.8065 0.639999 34.2625 0.639999ZM50.1665 13.152V16.608H40.5025V21.504H36.4065V16.608H26.4225V13.152H50.1665ZM48.1185 27.584H28.5345V18.208H32.3425V23.904H48.1185V27.584ZM34.5185 7.776H42.0385C43.1585 7.776 44.1185 7.136 44.1185 5.76C44.1185 4.384 43.0945 3.808 41.9745 3.808H34.5185C33.3985 3.808 32.5025 4.416 32.5025 5.792C32.5025 7.168 33.2705 7.776 34.5185 7.776ZM81.0895 9.696V0.991999H84.6735V27.296H81.0895V13.76H78.3055V27.296H74.4335V0.991999H78.3055V9.696H81.0895ZM68.0655 3.2H71.8735V21.216H60.0975V3.2H63.8095V8.128H68.0655V3.2ZM63.8095 17.376H68.0655V12.288H63.8095V17.376ZM88.7515 27.968V20.512H103.6V19.04H88.7515V16.352H108.048V23.488H92.8155V24.96H108.048V27.968H88.7515ZM100.752 5.888H90.9915V10.784H101.328V14.272H86.9275V2.272H100.752V5.888ZM112.112 6.304V10.4H108.144V15.104H104.08V0.639999H108.144V6.304H112.112ZM117.014 1.952H119.862C122.198 1.952 124.47 3.904 124.47 6.336V10.752C124.47 13.216 122.198 15.168 119.862 15.168H117.014C114.71 15.168 112.278 13.216 112.278 10.752V6.336C112.278 3.904 114.71 1.952 117.014 1.952ZM120.694 9.888V7.232C120.694 6.112 120.246 5.344 119.126 5.344H117.75C116.63 5.344 116.022 6.112 116.022 7.232V9.888C116.022 10.944 116.63 11.776 117.75 11.776H119.126C120.246 11.776 120.694 10.944 120.694 9.888ZM132.342 7.744V0.671999H135.99V16.16H132.342V10.816H129.974V16.192H126.326V0.671999H129.974V7.744H132.342ZM135.862 17.92V27.52H118.07V17.92H122.134V20.256H132.022V17.92H135.862ZM122.134 22.784V24.704H132.022V22.784H122.134ZM167.494 9.632H171.174V13.792H167.494V27.584H163.398V1.024H167.494V9.632ZM158.118 15.008C158.694 15.616 159.366 16.16 160.166 16.704V20.736C159.366 20.448 158.534 20.064 157.67 19.552C156.23 18.688 154.406 17.344 152.966 15.168C151.526 17.344 149.734 18.688 148.294 19.552C147.43 20.064 146.598 20.448 145.766 20.736V16.704C146.086 16.512 146.374 16.32 146.662 16.096C147.142 15.744 147.654 15.328 148.006 14.976C150.502 12.32 151.078 9.792 151.078 6.08V3.04H155.238V6.08C155.238 9.792 155.91 12.672 158.118 15.008ZM179.074 0.32H188.418C190.498 0.32 193.506 1.824 193.506 4.64V6.656C193.506 8.608 192.226 9.92 190.306 10.464V12.384H196.29V15.936H171.17V12.384H178.018V10.624C175.97 10.112 174.242 8.704 174.242 6.912V4.384C174.242 1.76 177.026 0.32 179.074 0.32ZM177.89 18.432H189.282C191.874 18.432 193.442 19.776 193.442 21.824V24.128C193.442 26.592 191.586 27.616 189.634 27.616H177.538C175.458 27.616 173.73 26.304 173.73 24.512V21.824C173.73 19.36 176.162 18.432 177.89 18.432ZM180.066 7.68H187.65C188.93 7.68 189.666 6.656 189.666 5.664C189.666 4.64 188.93 3.616 187.65 3.616H180.066C178.818 3.616 178.082 4.64 178.082 5.664C178.082 6.656 178.818 7.68 180.066 7.68ZM188.194 21.856H179.49C178.242 21.856 177.858 22.304 177.858 22.784V23.616C177.858 24.576 178.658 24.512 179.49 24.512H188.354C189.122 24.512 189.634 24.064 189.634 23.456V22.848C189.634 22.208 189.058 21.856 188.194 21.856ZM182.178 10.752V12.384H186.146V10.752H182.178ZM206.954 4.896V1.44H211.114V14.976H197.578V1.44H201.706V4.896H206.954ZM201.706 8.48V11.52H206.954V8.48H201.706ZM217.258 6.368V0.703999H221.578V15.616H217.258V10.08H212.586V6.368H217.258ZM221.578 17.28V27.648H202.25V17.28H206.826V19.2H217.066V17.28H221.578ZM206.826 22.432V24.416H217.066V22.432H206.826Z" fill="#414141"/>
</svg>
