<svg width="225" height="33" viewBox="0 0 225 33" fill="none" xmlns="http://www.w3.org/2000/svg">
<path d="M25.824 2.64V29.584H21.696V2.64H25.824ZM20.064 18.064V21.616H12.224V29.648H8.096V21.616H1.28V18.064H20.064ZM8.416 3.888H12.352C13.28 7.632 16 11.6 18.4 15.28H13.984C12.704 13.584 11.136 11.024 10.304 9.36C9.344 11.6 8.192 13.232 6.752 15.28H1.856C4.256 12.624 5.856 9.776 6.912 7.6C7.52 6.32 8.032 5.072 8.416 3.888ZM35.2625 2.64H43.7425C46.2065 2.64 48.7025 3.888 48.7025 6.704V8.56C48.7025 11.376 46.3665 12.72 43.5505 12.72H34.8785C32.2865 12.72 29.9825 11.344 29.9825 8.368V6.768C29.9825 4.432 31.8065 2.64 35.2625 2.64ZM51.1665 15.152V18.608H41.5025V23.504H37.4065V18.608H27.4225V15.152H51.1665ZM49.1185 29.584H29.5345V20.208H33.3425V25.904H49.1185V29.584ZM35.5185 9.776H43.0385C44.1585 9.776 45.1185 9.136 45.1185 7.76C45.1185 6.384 44.0945 5.808 42.9745 5.808H35.5185C34.3985 5.808 33.5025 6.416 33.5025 7.792C33.5025 9.168 34.2705 9.776 35.5185 9.776ZM82.0895 11.696V2.992H85.6735V29.296H82.0895V15.76H79.3055V29.296H75.4335V2.992H79.3055V11.696H82.0895ZM69.0655 5.2H72.8735V23.216H61.0975V5.2H64.8095V10.128H69.0655V5.2ZM64.8095 19.376H69.0655V14.288H64.8095V19.376ZM89.7515 29.968V22.512H104.6V21.04H89.7515V18.352H109.048V25.488H93.8155V26.96H109.048V29.968H89.7515ZM101.752 7.888H91.9915V12.784H102.328V16.272H87.9275V4.272H101.752V7.888ZM113.112 8.304V12.4H109.144V17.104H105.08V2.64H109.144V8.304H113.112ZM118.014 3.952H120.862C123.198 3.952 125.47 5.904 125.47 8.336V12.752C125.47 15.216 123.198 17.168 120.862 17.168H118.014C115.71 17.168 113.278 15.216 113.278 12.752V8.336C113.278 5.904 115.71 3.952 118.014 3.952ZM121.694 11.888V9.232C121.694 8.112 121.246 7.344 120.126 7.344H118.75C117.63 7.344 117.022 8.112 117.022 9.232V11.888C117.022 12.944 117.63 13.776 118.75 13.776H120.126C121.246 13.776 121.694 12.944 121.694 11.888ZM133.342 9.744V2.672H136.99V18.16H133.342V12.816H130.974V18.192H127.326V2.672H130.974V9.744H133.342ZM136.862 19.92V29.52H119.07V19.92H123.134V22.256H133.022V19.92H136.862ZM123.134 24.784V26.704H133.022V24.784H123.134ZM168.494 11.632H172.174V15.792H168.494V29.584H164.398V3.024H168.494V11.632ZM159.118 17.008C159.694 17.616 160.366 18.16 161.166 18.704V22.736C160.366 22.448 159.534 22.064 158.67 21.552C157.23 20.688 155.406 19.344 153.966 17.168C152.526 19.344 150.734 20.688 149.294 21.552C148.43 22.064 147.598 22.448 146.766 22.736V18.704C147.086 18.512 147.374 18.32 147.662 18.096C148.142 17.744 148.654 17.328 149.006 16.976C151.502 14.32 152.078 11.792 152.078 8.08V5.04H156.238V8.08C156.238 11.792 156.91 14.672 159.118 17.008ZM180.074 2.32H189.418C191.498 2.32 194.506 3.824 194.506 6.64V8.656C194.506 10.608 193.226 11.92 191.306 12.464V14.384H197.29V17.936H172.17V14.384H179.018V12.624C176.97 12.112 175.242 10.704 175.242 8.912V6.384C175.242 3.76 178.026 2.32 180.074 2.32ZM178.89 20.432H190.282C192.874 20.432 194.442 21.776 194.442 23.824V26.128C194.442 28.592 192.586 29.616 190.634 29.616H178.538C176.458 29.616 174.73 28.304 174.73 26.512V23.824C174.73 21.36 177.162 20.432 178.89 20.432ZM181.066 9.68H188.65C189.93 9.68 190.666 8.656 190.666 7.664C190.666 6.64 189.93 5.616 188.65 5.616H181.066C179.818 5.616 179.082 6.64 179.082 7.664C179.082 8.656 179.818 9.68 181.066 9.68ZM189.194 23.856H180.49C179.242 23.856 178.858 24.304 178.858 24.784V25.616C178.858 26.576 179.658 26.512 180.49 26.512H189.354C190.122 26.512 190.634 26.064 190.634 25.456V24.848C190.634 24.208 190.058 23.856 189.194 23.856ZM183.178 12.752V14.384H187.146V12.752H183.178ZM207.954 6.896V3.44H212.114V16.976H198.578V3.44H202.706V6.896H207.954ZM202.706 10.48V13.52H207.954V10.48H202.706ZM218.258 8.368V2.704H222.578V17.616H218.258V12.08H213.586V8.368H218.258ZM222.578 19.28V29.648H203.25V19.28H207.826V21.2H218.066V19.28H222.578ZM207.826 24.432V26.416H218.066V24.432H207.826Z" fill="white"/>
</svg>
